<?xml version="1.0" encoding="UTF-8" standalone="no"?>
<svg
   xmlns:dc="http://purl.org/dc/elements/1.1/"
   xmlns:cc="http://creativecommons.org/ns#"
   xmlns:rdf="http://www.w3.org/1999/02/22-rdf-syntax-ns#"
   xmlns:svg="http://www.w3.org/2000/svg"
   xmlns="http://www.w3.org/2000/svg"
   xmlns:sodipodi="http://sodipodi.sourceforge.net/DTD/sodipodi-0.dtd"
   xmlns:inkscape="http://www.inkscape.org/namespaces/inkscape"
   version="1.1"
   id="Layer_1"
   x="0px"
   y="0px"
   width="195.574px"
   height="96.744px"
   viewBox="0 0 195.574 96.744"
   enable-background="new 0 0 195.574 96.744"
   xml:space="preserve"
   sodipodi:docname="abxymod.svg"
   inkscape:version="1.0.1 (3bc2e813f5, 2020-09-07)"><metadata
   id="metadata587"><rdf:RDF><cc:Work
       rdf:about=""><dc:format>image/svg+xml</dc:format><dc:type
         rdf:resource="http://purl.org/dc/dcmitype/StillImage" /><dc:title></dc:title></cc:Work></rdf:RDF></metadata><defs
   id="defs585" /><sodipodi:namedview
   pagecolor="#ffffff"
   bordercolor="#666666"
   borderopacity="1"
   objecttolerance="10"
   gridtolerance="10"
   guidetolerance="10"
   inkscape:pageopacity="0"
   inkscape:pageshadow="2"
   inkscape:window-width="1600"
   inkscape:window-height="837"
   id="namedview583"
   showgrid="false"
   inkscape:zoom="5.6568543"
   inkscape:cx="62.762034"
   inkscape:cy="59.256958"
   inkscape:window-x="-8"
   inkscape:window-y="-8"
   inkscape:window-maximized="1"
   inkscape:current-layer="Layer_1" />
<g
   id="g512">
	<g
   id="g483">
		<g
   id="A_1_">
			<path
   fill="#141414"
   d="M23.688,0c13.1,0,23.705,10.606,23.705,23.682c0,13.077-10.605,23.682-23.705,23.682     C10.606,47.364,0,36.759,0,23.682C0,10.606,10.606,0,23.688,0z"
   id="path476" />
		</g>
		<g
   enable-background="new    "
   id="g481">
			<path
   fill="#39B54A"
   d="M32.448,38.835l-2.778-7.663H17.542l-2.645,7.663H9.416L20.883,8.526h5.583l11.512,30.309H32.448z      M23.658,13.079h-0.129c-0.107,0.847-0.238,1.577-0.45,2.174l-4.137,11.679h9.293l-4.163-11.679     C23.94,14.887,23.789,14.163,23.658,13.079z"
   id="path479" />
		</g>
	</g>
	<g
   id="g492">
		<g
   id="B_1_">
			<path
   fill="#141414"
   d="M73.084,0c13.097,0,23.703,10.61,23.703,23.687S86.181,47.369,73.084,47.369     c-13.085,0-23.69-10.606-23.69-23.683S59.999,0,73.084,0z"
   id="path485" />
		</g>
		<g
   enable-background="new    "
   id="g490">
			<path
   fill="#C1272D"
   d="M83.288,30.01c0,2.628-0.985,4.783-2.925,6.385c-1.957,1.633-4.47,2.437-7.566,2.437h-9.908V8.53h9.572     c2.898,0,5.194,0.646,6.867,1.884c1.684,1.266,2.523,2.952,2.523,5.089c0,1.646-0.504,3.096-1.5,4.348     c-1.014,1.28-2.322,2.15-3.956,2.67v0.091c2.164,0.274,3.842,1.075,5.069,2.372C82.663,26.311,83.288,27.967,83.288,30.01z      M76.519,16.471c0-1.205-0.454-2.144-1.332-2.795c-0.907-0.649-2.224-0.973-3.979-0.973h-3.277v8.383h3.232     c1.693,0,3.021-0.4,3.955-1.201C76.044,19.084,76.519,17.965,76.519,16.471z M77.953,29.873c0-1.449-0.508-2.585-1.558-3.409     c-1.051-0.814-2.595-1.206-4.674-1.206h-3.79v9.413h4.239c1.801,0,3.212-0.438,4.237-1.308     C77.451,32.508,77.953,31.337,77.953,29.873z"
   id="path488" />
		</g>
	</g>
	<g
   id="g501">
		<g
   id="Y_1_">
			<path
   fill="#141414"
   d="M171.869,0c13.1,0,23.705,10.614,23.705,23.69c0,13.077-10.605,23.682-23.705,23.682     c-13.082,0-23.688-10.605-23.688-23.682C148.181,10.614,158.787,0,171.869,0z"
   id="path494" />
		</g>
		<g
   enable-background="new    "
   id="g499">
			<path
   fill="#FCEE21"
   d="M174.266,27.847v10.987h-4.997V27.97l-9.847-19.436h5.721l6.095,12.646     c0.213,0.411,0.339,0.783,0.438,1.121c0.099,0.336,0.176,0.61,0.256,0.825h0.045c0.151-0.642,0.373-1.275,0.695-1.903     l6.323-12.689h5.319L174.266,27.847z"
   id="path497" />
		</g>
	</g>
	<g
   id="g510">
		<g
   id="X_1_">
			<path
   fill="#141414"
   d="M122.47,0c13.105,0,23.711,10.61,23.711,23.687s-10.605,23.683-23.711,23.683     c-13.076,0-23.683-10.606-23.683-23.683S109.394,0,122.47,0z"
   id="path503" />
		</g>
		<g
   enable-background="new    "
   id="g508">
			<path
   fill="#0071BC"
   d="M129.59,38.831l-6.406-11.019c-0.132-0.288-0.242-0.532-0.309-0.763     c-0.049-0.258-0.121-0.502-0.212-0.763h-0.092c-0.116,0.275-0.19,0.523-0.267,0.775c-0.077,0.222-0.187,0.462-0.336,0.75     l-6.523,11.019h-6.123l10.137-15.189L110.2,8.53h6.186l5.401,9.954c0.519,0.885,0.861,1.64,1.048,2.266h0.073     c0.305-0.793,0.537-1.311,0.657-1.56c0.109-0.237,2.209-3.797,6.27-10.66h5.674l-9.459,15.02l9.581,15.281H129.59z"
   id="path506" />
		</g>
	</g>
</g>
<g
   id="g550">
	<g
   id="g521">
		<g
   id="A_2_">
			<path
   fill="#FFFFFF"
   d="M23.688,49.376c13.1,0,23.705,10.606,23.705,23.682c0,13.077-10.605,23.682-23.705,23.682     C10.606,96.74,0,86.135,0,73.058C0,59.982,10.606,49.376,23.688,49.376z"
   id="path514" />
		</g>
		<g
   enable-background="new    "
   id="g519">
			<path
   fill="#C64AB5"
   d="M32.448,88.211l-2.778-7.663H17.542l-2.645,7.663H9.416l11.467-30.309h5.583l11.512,30.309H32.448z      M23.658,62.455h-0.129c-0.107,0.847-0.238,1.577-0.45,2.174l-4.137,11.679h9.293l-4.163-11.679     C23.94,64.263,23.789,63.539,23.658,62.455z"
   id="path517" />
		</g>
	</g>
	<g
   id="g530">
		<g
   id="B_2_">
			<path
   fill="#FFFFFF"
   d="M73.084,49.374c13.097,0,23.703,10.61,23.703,23.687S86.181,96.743,73.084,96.743     c-13.085,0-23.69-10.606-23.69-23.683S59.999,49.374,73.084,49.374z"
   id="path523" />
		</g>
		<g
   enable-background="new    "
   id="g528">
			<path
   fill="#3ED8D2"
   d="M83.288,79.383c0,2.628-0.985,4.783-2.925,6.385c-1.957,1.633-4.47,2.437-7.566,2.437h-9.908V57.904     h9.572c2.898,0,5.194,0.646,6.867,1.884c1.684,1.266,2.523,2.952,2.523,5.089c0,1.646-0.504,3.096-1.5,4.348     c-1.014,1.28-2.322,2.15-3.956,2.67v0.091c2.164,0.274,3.842,1.075,5.069,2.372C82.663,75.684,83.288,77.34,83.288,79.383z      M76.519,65.844c0-1.205-0.454-2.144-1.332-2.795c-0.907-0.649-2.224-0.973-3.979-0.973h-3.277v8.383h3.232     c1.693,0,3.021-0.4,3.955-1.201C76.044,68.458,76.519,67.338,76.519,65.844z M77.953,79.247c0-1.449-0.508-2.585-1.558-3.409     c-1.051-0.814-2.595-1.206-4.674-1.206h-3.79v9.413h4.239c1.801,0,3.212-0.438,4.237-1.308     C77.451,81.881,77.953,80.71,77.953,79.247z"
   id="path526" />
		</g>
	</g>
	<g
   id="g539">
		<g
   id="Y_2_">
			<path
   fill="#FFFFFF"
   d="M171.869,49.372c13.1,0,23.705,10.614,23.705,23.69c0,13.077-10.605,23.682-23.705,23.682     c-13.082,0-23.688-10.605-23.688-23.682C148.181,59.986,158.787,49.372,171.869,49.372z"
   id="path532" />
		</g>
		<g
   enable-background="new    "
   id="g537">
			<path
   fill="#0311DE"
   d="M174.266,77.219v10.987h-4.997V77.342l-9.847-19.436h5.721l6.095,12.646     c0.213,0.411,0.339,0.783,0.438,1.121c0.099,0.336,0.176,0.61,0.256,0.825h0.045c0.151-0.642,0.373-1.275,0.695-1.903     l6.323-12.689h5.319L174.266,77.219z"
   id="path535" />
		</g>
	</g>
	<g
   id="g548">
		<g
   id="X_2_">
			<path
   fill="#FFFFFF"
   d="M122.47,49.374c13.105,0,23.711,10.61,23.711,23.687s-10.605,23.683-23.711,23.683     c-13.076,0-23.683-10.606-23.683-23.683S109.394,49.374,122.47,49.374z"
   id="path541" />
		</g>
		<g
   enable-background="new    "
   id="g546">
			<path
   fill="#FF8E43"
   d="M129.59,88.205l-6.406-11.019c-0.132-0.288-0.242-0.532-0.309-0.763     c-0.049-0.258-0.121-0.502-0.212-0.763h-0.092c-0.116,0.275-0.19,0.523-0.267,0.775c-0.077,0.222-0.187,0.462-0.336,0.75     l-6.523,11.019h-6.123l10.137-15.189l-9.26-15.111h6.186l5.401,9.954c0.519,0.885,0.861,1.64,1.048,2.266h0.073     c0.305-0.793,0.537-1.311,0.657-1.56c0.109-0.237,2.209-3.797,6.27-10.66h5.674l-9.459,15.02l9.581,15.281H129.59z"
   id="path544" />
		</g>
	</g>
</g>
<g
   id="g552">
</g>
<g
   id="g554">
</g>
<g
   id="g556">
</g>
<g
   id="g558">
</g>
<g
   id="g560">
</g>
<g
   id="g562">
</g>
<g
   id="g564">
</g>
<g
   id="g566">
</g>
<g
   id="g568">
</g>
<g
   id="g570">
</g>
<g
   id="g572">
</g>
<g
   id="g574">
</g>
<g
   id="g576">
</g>
<g
   id="g578">
</g>
<g
   id="g580">
</g>
<path
   style="fill:#39b54a;fill-opacity:1;stroke-width:0.176777"
   d="m 9.6846521,87.7622 c 0.066313,-0.170147 2.5741789,-6.792644 5.5730369,-14.71666 2.998857,-7.924015 5.507964,-14.548485 5.575794,-14.721044 0.111915,-0.284714 0.377152,-0.309248 2.866607,-0.265165 l 2.743281,0.04858 5.546524,14.584077 c 3.050588,8.021243 5.59407,14.763064 5.65218,14.981825 l 0.105658,0.397748 -2.626621,-5.31e-4 -2.62662,-5.3e-4 -1.037872,-2.872082 C 30.88579,83.618772 30.263566,81.9087 30.073899,81.398257 L 29.72905,80.470162 H 23.597775 17.4665 l -1.303387,3.800699 -1.303388,3.800699 h -2.647821 c -2.4498137,0 -2.6388044,-0.02314 -2.5272519,-0.30936 z M 28.294451,76.183327 c -2.003248,-5.293989 -4.550406,-12.951645 -4.550406,-13.680128 0,-0.03534 -0.07052,-0.06426 -0.156705,-0.06426 -0.08619,0 -0.211025,0.362238 -0.277418,0.804975 -0.06639,0.442736 -0.719508,2.491136 -1.451369,4.551999 -0.731861,2.060864 -1.716346,4.840831 -2.187746,6.177705 l -0.857091,2.43068 h 4.782175 c 3.752484,0 4.76417,-0.04758 4.69856,-0.220971 z"
   id="path1017" /><path
   style="fill:#39b54a;fill-opacity:1;stroke-width:0.176777"
   d="m 62.988471,73.033279 v -15.03828 l 6.142991,0.06243 c 6.043564,0.06142 6.164728,0.06976 7.486072,0.515262 2.300472,0.775626 3.603716,1.821445 4.597624,3.689472 0.365238,0.686455 0.423255,1.037807 0.423255,2.563262 0,1.623151 -0.04641,1.865748 -0.567326,2.965476 -0.726734,1.534242 -1.978549,2.761508 -3.633049,3.561806 -0.710631,0.343739 -1.154399,0.648312 -1.008975,0.692495 0.142781,0.04338 0.809479,0.218983 1.48155,0.39023 2.360489,0.601463 4.330635,2.465552 4.954268,4.68757 0.580506,2.068358 0.237563,4.738591 -0.84607,6.587668 -0.656089,1.119531 -2.231039,2.484146 -3.702975,3.208439 -2.106341,1.036463 -3.014678,1.145923 -9.537928,1.149383 l -5.789437,0.0031 z m 10.69961,10.956602 c 2.6828,-0.495943 4.314526,-2.225401 4.321541,-4.58038 0.007,-2.366058 -1.073784,-3.81431 -3.351413,-4.490693 -0.705972,-0.209651 -1.715471,-0.282277 -3.923648,-0.282277 h -2.973119 v 4.655119 c 0,2.560317 0.05303,4.708154 0.117851,4.772971 0.191923,0.191922 4.678557,0.134194 5.808788,-0.07474 z m 0.306514,-13.994856 c 1.265397,-0.580458 2.009379,-1.3751 2.346087,-2.505841 0.533263,-1.790814 0.171873,-3.436978 -0.964443,-4.393125 -0.909371,-0.765185 -2.197518,-1.040046 -5.020759,-1.071312 l -2.505649,-0.02775 -0.04762,4.062038 c -0.02619,2.234122 -0.005,4.173176 0.04716,4.309011 0.07695,0.200522 0.568007,0.232593 2.610879,0.170517 2.252912,-0.06846 2.622617,-0.125314 3.534345,-0.543538 z"
   id="path1019" /><path
   style="fill:#39b54a;fill-opacity:1;stroke-width:0.176777"
   d="m 109.65752,87.981603 c 0,-0.04948 2.2314,-3.435641 4.95866,-7.524809 l 4.95866,-7.434851 -1.3242,-2.171289 c -0.72831,-1.19421 -2.79539,-4.569754 -4.5935,-7.501211 l -3.26929,-5.329922 h 2.97448 2.97447 l 2.99188,5.524272 c 1.64553,3.03835 3.09567,5.782808 3.22254,6.098796 0.12687,0.315988 0.28341,0.574524 0.34787,0.574524 0.0645,0 0.24269,-0.3386 0.39607,-0.752444 0.206,-0.555815 4.50548,-8.001301 6.4843,-11.228967 0.10467,-0.170737 0.7902,-0.213822 2.81268,-0.176777 l 2.67428,0.04898 -4.67036,7.415066 c -4.27705,6.79062 -4.65047,7.445644 -4.43421,7.778174 1.03876,1.597213 9.01481,14.377951 9.08265,14.553916 0.0687,0.178267 -0.51503,0.215263 -2.78928,0.176777 l -2.87619,-0.04867 -3.24405,-5.568466 c -1.78422,-3.062656 -3.3263,-5.866776 -3.42683,-6.231378 -0.10053,-0.364602 -0.21577,-0.662913 -0.25609,-0.662913 -0.0403,0 -0.23977,0.37786 -0.44323,0.839689 -0.20346,0.46183 -1.81601,3.285837 -3.58343,6.275573 l -3.21349,5.435884 h -2.8772 c -1.58245,0 -2.87719,-0.04048 -2.87719,-0.08996 z"
   id="path1021" /><path
   style="fill:#39b54a;fill-opacity:1;stroke-width:0.176777"
   d="m 169.30315,82.640417 v -5.431144 l -2.85154,-5.661594 c -1.56834,-3.113877 -3.76322,-7.433628 -4.87751,-9.599447 l -2.02597,-3.937852 2.78736,0.04877 2.78737,0.04876 3.06796,6.355848 c 1.68738,3.495717 3.20347,6.737359 3.36908,7.20365 0.34473,0.970619 0.48326,1.047367 0.65505,0.362908 0.0669,-0.266693 1.62072,-3.528223 3.45285,-7.247845 l 3.33115,-6.76295 h 2.5927 2.5927 l -0.69782,1.281631 c -0.3838,0.704898 -2.61838,4.984024 -4.96573,9.50917 l -4.2679,8.227538 v 5.516849 5.516851 h -2.47487 -2.47488 z"
   id="path1023" /><path
   style="fill:#39b54a;fill-opacity:1;stroke-width:0.176777"
   d="m 169.30315,33.275456 v -5.475403 l -4.35403,-8.622537 c -2.39471,-4.742395 -4.58301,-9.040172 -4.86287,-9.5506148 l -0.50884,-0.9280776 2.78575,0.00702 2.78574,0.00702 3.09359,6.4477894 c 1.70148,3.546283 3.207,6.804652 3.3456,7.24082 0.1386,0.436167 0.305,0.793032 0.36977,0.793032 0.0648,0 0.21817,-0.335166 0.34091,-0.744813 0.12273,-0.409647 1.68675,-3.671177 3.47559,-7.247845 l 3.25244,-6.5030318 h 2.5426 2.5426 l -4.92955,9.4711728 -4.92955,9.471172 v 5.554847 5.554847 h -2.47487 -2.47488 z"
   id="path1025" /><path
   style="fill:#39b54a;fill-opacity:1;stroke-width:0.176777"
   d="m 109.66108,38.534225 c 0.0741,-0.123918 2.27952,-3.444338 4.90099,-7.37871 2.62148,-3.934372 4.79798,-7.275452 4.83667,-7.424621 0.0528,-0.203653 -4.63293,-8.049652 -8.84542,-14.8110996 -0.10809,-0.1734824 0.50277,-0.2209708 2.84243,-0.2209708 h 2.98009 l 3.03187,5.6126604 c 1.66752,3.086963 3.12224,5.851308 3.2327,6.14299 l 0.20084,0.53033 0.59821,-1.237437 c 0.32902,-0.68059 1.89453,-3.425048 3.47893,-6.098796 l 2.88073,-4.8613591 2.69306,-0.048799 c 1.48119,-0.026839 2.69307,-0.011069 2.69307,0.035046 0,0.046114 -2.04442,3.3296041 -4.54315,7.2966431 -2.49873,3.967039 -4.54378,7.332123 -4.54456,7.477964 -7.7e-4,0.145841 2.08342,3.587085 4.63154,7.647209 2.54812,4.060125 4.63295,7.421091 4.63295,7.468816 0,0.04772 -1.29268,0.08376 -2.87263,0.08008 l -2.87262,-0.0067 -3.18198,-5.495579 c -1.75009,-3.022558 -3.29538,-5.843555 -3.43398,-6.268871 -0.13861,-0.425318 -0.30679,-0.773305 -0.37374,-0.773305 -0.0669,0 -0.25231,0.338086 -0.41191,0.751301 -0.15961,0.413216 -1.75081,3.217336 -3.536,6.231379 l -3.24582,5.480077 -2.95347,0.04853 c -2.35551,0.0387 -2.92621,0.0029 -2.8188,-0.176778 z"
   id="path1027" /><path
   style="fill:#39b54a;fill-opacity:1;stroke-width:0.176777"
   d="M 62.883581,23.738682 V 8.6988236 h 5.893742 c 5.293395,0 6.033015,0.03562 7.261018,0.3496904 2.48626,0.6358781 4.337646,2.016844 5.211229,3.887102 0.387805,0.830253 0.456291,1.221791 0.453024,2.589968 -0.0036,1.501166 -0.04917,1.703541 -0.663793,2.947153 -0.780526,1.579287 -1.904034,2.676814 -3.58965,3.50664 -0.625627,0.307995 -1.104253,0.593242 -1.063613,0.633882 0.04064,0.04064 0.572274,0.190156 1.18141,0.332257 3.884405,0.906171 6.108154,4.246943 5.52435,8.299319 -0.485642,3.371002 -2.961833,5.965708 -6.772688,7.096838 -0.794119,0.235711 -2.114065,0.302173 -7.20365,0.362728 l -6.231379,0.07414 z M 75.209699,34.17694 c 1.618358,-0.728373 2.876678,-2.565502 2.876678,-4.199909 0,-1.95966 -1.223895,-3.676119 -3.093592,-4.338626 -0.873752,-0.309605 -1.598022,-0.390641 -4.110058,-0.459858 l -3.049398,-0.08402 v 4.809277 4.809277 l 3.226175,-0.06013 c 2.933946,-0.05468 3.309873,-0.0978 4.150195,-0.476005 z M 72.203648,21.073197 c 2.622742,-0.340712 3.982746,-1.557117 4.370156,-3.908722 0.16069,-0.975397 -0.215116,-2.397295 -0.813825,-3.079188 -0.897734,-1.022462 -2.111441,-1.36053 -5.230806,-1.456996 l -2.695844,-0.08337 v 4.234672 c 0,2.32907 0.05303,4.287706 0.117851,4.352524 0.170557,0.170557 2.762435,0.134644 4.252468,-0.05892 z"
   id="path1029" /></svg>
